<svg t="1588740029677" class="icon" viewBox="0 0 1024 1024" version="1.1" xmlns="http://www.w3.org/2000/svg" p-id="3053" width="64" height="64"><path d="M965.624725 773.24061c-21.266923-14.966205-45.810139-23.006017-70.601226-24.317334-93.439331-61.18813-154.64745-107.114209-190.382838-142.849595l-109.772823-109.772824 66.613303-74.565162c12.625424 7.126288 26.184362 11.821842 39.747298 13.758834 10.234669 1.705112 17.057116 1.705112 23.881561 1.705111 13.646892 0 17.057116 0 30.704007 11.939782-6.822446 5.117335-10.234669 13.646892-10.234669 22.17445s3.412223 18.764226 10.234669 25.586673l59.702903 59.702903c8.529557 10.234669 22.17445 15.352004 35.821342 15.352004s27.291785-5.117335 35.821343-17.057116l121.110918-121.110918c10.234669-8.529557 15.352004-22.17445 15.352004-35.821342s-5.117335-25.586673-15.352004-35.821342l-59.702903-59.702904c-6.822446-6.822446-15.352004-10.234669-23.881561-10.234669s-17.057116 5.117335-23.881561 10.234669c-13.646892-11.939781-13.646892-15.352004-13.646892-28.998895 0-6.822446 0-15.352004-3.412223-25.586673-3.412223-23.881561-15.352004-47.761123-34.11623-66.52535l-61.408015-61.408015c-35.821342-35.821342-52.878458-52.878458-98.934469-73.347796-98.934469-46.056011-199.576049-37.526454-346.273641 28.998896-8.529557 3.412223-11.939781 10.234669-10.234669 18.764226s8.529557 13.646892 17.057116 13.646892h22.17445c75.054907 0 114.286473 0 182.518933 68.230461 29.876439 29.876439 30.73799 75.686578 3.969933 109.391023-3.608121 0.543717-6.35469 2.162873-9.087267 4.89545l-75.772533 84.57195-57.278166-57.278166c-62.955209-62.955209-107.236145-122.518185-141.316394-188.84164-1.789068-33.56052-15.256054-64.960165-39.495429-89.19954C206.552095 10.757757 165.613419-2.889135 124.674742 0.523088c-5.117335 1.705112-10.234669 5.117335-11.939781 8.529557-3.412223 5.117335-3.412223 11.939781 0 17.057115l47.761123 85.289577c-10.234669 22.17445-34.11623 35.821342-57.995792 34.11623L53.032058 63.636214c-1.705112-5.117335-8.529557-8.529557-13.646892-8.529557-5.117335-1.705112-10.234669 1.705112-13.646892 6.822447-40.938677 61.408015-25.586673 143.285368 35.821342 185.929157 21.15698 15.112129 44.992565 23.515752 69.131992 25.238854 0.269859 0.113941 0.523727 0.253868 0.803581 0.347819 66.52535 34.11623 126.228253 78.465131 189.34138 141.580256l62.385506 60.966245L20.622938 880.704637c-13.646892 13.646892-20.469338 32.409119-20.469338 51.173346s6.822446 35.821342 20.469338 49.468234l23.881561 23.881561c13.646892 11.939781 30.704008 18.764226 47.761124 18.764226s35.821342-6.822446 49.468234-20.469338l362.185352-405.414836 105.197207 105.197207c35.78736 35.78736 81.791398 98.818529 143.113458 190.788626 2.198855 32.828901 15.633857 63.480935 39.405475 87.252554 25.586673 25.586673 59.702903 39.233565 95.524246 39.233564h13.646891c5.117335 0 10.234669-3.412223 13.646892-8.529557s3.412223-11.939781 0-17.057115l-49.468234-83.582466c11.939781-22.17445 34.11623-35.821342 59.702904-34.11623l47.761123 81.877353c1.705112 5.117335 8.529557 8.529557 13.646892 8.529558 6.822446-1.705112 11.939781-3.412223 15.352003-8.529558 40.936678-61.410014 23.877563-143.287367-35.823341-185.931156z m-388.917428-624.314819c-54.585569-52.878458-95.524245-69.937572-141.580257-75.054907 97.229357-30.704008 168.872041-28.998896 240.514726 3.412222 40.938677 17.057116 54.585569 30.704008 90.40691 66.52535l61.408015 61.408015c13.646892 13.646892 22.17445 30.704008 23.881561 47.761123 1.705112 8.529557 1.705112 15.352004 1.705112 20.469339 0 18.764226 1.705112 32.409119 22.174451 52.878457 6.822446 6.822446 17.057116 10.234669 25.586673 10.23467 10.234669 0 18.764226-3.412223 23.881561-10.23467l59.702903 59.702904c3.412223 3.412223 5.117335 6.822446 5.117334 11.939781s-1.705112 8.529557-5.117334 11.939781l-121.110918 121.110918c-6.822446 6.822446-17.057116 6.822446-23.881562 0l-59.702903-59.702903c6.822446-5.117335 10.234669-13.646892 8.529558-23.881561 0-8.529557-3.412223-18.764226-10.23467-25.586673-20.469338-20.469338-34.11623-22.17445-52.878457-22.174451-5.117335 0-11.939781 0-20.469339-1.705111-18.764226-1.705112-34.11623-10.234669-47.761123-23.881561l-73.347796-73.347797c37.524455-46.054012 34.114231-110.87425-6.824445-151.812926zM41.092277 107.987114l35.821342 61.408015c3.412223 5.117335 8.529557 8.529557 13.646892 8.529557h8.529557c39.233565 1.705112 75.054907-18.764226 92.112023-52.878458l3.412222-8.529557c3.412223-5.117335 3.412223-10.234669 0-15.352004L157.08586 36.34443c20.469338 3.412223 39.233565 13.646892 54.585569 28.998895 17.58684 19.052077 28.846975 43.147526 29.512628 69.030045a17.530869 17.530869 0 0 0-0.515731 4.31975c0 7.899885-0.953503 15.605872-2.718584 23.034003-6.434648 24.699135-21.864612 46.233919-43.337428 60.550462-34.11623 22.17445-80.172242 22.17445-114.286472-1.705112-35.821342-25.590671-51.173346-71.646682-39.233565-112.585359zM344.720129 391.145628c-51.173346-52.878458-102.346692-93.817134-156.93226-126.228253 8.529557-3.412223 18.764226-8.529557 27.291785-13.646892 25.586673-17.057116 42.643789-39.233565 52.878458-66.525349 32.409119 54.585569 73.347796 105.758914 124.521142 156.93226l58.589483 58.589483-45.946069 51.283289-60.402539-60.404538zM117.852296 977.933994c-13.646892 13.646892-35.821342 15.352004-49.468234 1.705112l-23.881562-22.17445c-6.822446-6.822446-10.234669-15.352004-10.234669-23.881562 0-10.234669 3.412223-18.764226 11.939781-27.291784l9.660968-10.808371 24.455263 24.455263c3.412223 3.412223 6.822446 5.117335 11.939781 5.117334s8.529557-1.705112 11.939781-5.117334c6.822446-6.822446 6.822446-17.057116 0-23.881562L78.40884 870.262076l22.542259-25.220864 27.133867 27.133867c3.412223 3.412223 6.822446 5.117335 11.939781 5.117335s8.529557-1.705112 11.939781-5.117335c6.822446-6.822446 6.822446-17.057116 0-23.881561L123.495356 819.822348l438.759468-490.890315 71.642685 71.642684-70.393335 78.756979c-2.010953 0.851556-3.790026 2.152879-5.561104 3.925955l-68.230461 76.760019a17.524872 17.524872 0 0 0-4.155836 6.524601L117.852296 977.933994z m409.406756-405.954555l46.681686-52.252784 110.228586 110.228587c30.704008 32.409119 83.582465 73.347796 160.342484 124.521142-10.234669 3.412223-20.469338 8.529557-30.704007 15.352004-21.162977 13.227111-36.15117 31.591545-46.595731 51.892971-0.15392 0.289849-0.295846 0.585695-0.447766 0.877543a161.076102 161.076102 0 0 0-4.217803 8.989317c-0.523727 1.20937-1.045455 2.41874-1.539199 3.636107l-0.207892 0.527725a179.362577 179.362577 0 0 0-1.575179 4.013909 2617.370718 2617.370718 0 0 0-27.975429-40.255033l22.858094-22.858094c6.822446-6.822446 6.822446-17.057116 0-23.881561-6.822446-6.822446-17.057116-6.822446-23.881561 0l-19.016095 19.016095a1434.72471 1434.72471 0 0 0-20.539302-27.221821l15.675835-15.675835c6.822446-6.822446 6.822446-17.057116 0-23.881561-6.822446-6.822446-17.057116-6.822446-23.881561 0l-13.021218 13.021218c-12.53747-15.11013-24.101447-27.969432-34.739905-38.607891l-107.444037-107.442038zM984.386953 913.113756l-35.821342-61.408015c-3.412223-5.117335-8.529557-8.529557-13.646892-8.529557h-8.529557c-39.233565-3.412223-75.054907 18.764226-92.112023 52.878458l-3.412223 8.529557c-3.412223 5.117335-3.412223 10.234669 0 15.352004l37.526454 64.820237c-20.469338-3.412223-39.233565-13.646892-54.585568-28.998895-17.253014-18.692264-28.405205-42.238-29.454659-67.558812a17.744757 17.744757 0 0 0 0.455763-4.083873c0-21.608745 6.860427-41.840207 18.816199-58.977281a105.854865 105.854865 0 0 1 27.239812-26.310296c17.057116-11.939781 35.821342-17.057116 56.290681-17.057115 20.469338 0 40.938677 6.822446 57.995792 18.764226 35.827339 25.584674 51.179343 71.640685 39.237563 112.579362z" fill="#1296db" p-id="3054"></path></svg>